{
  "accessors": [
    {
      "bufferView": 2,
      "componentType": 5126,
      "count": 388,
      "max": [
        2.3665106296539307,
        5.388665676116943,
        2.120560884475708
      ],
      "min": [
        -2.3718743324279785,
        -5.169208526611328,
        -1.9022952318191528
      ],
      "type": "VEC3"
    },
    {
      "bufferView": 2,
      "byteOffset": 4656,
      "componentType": 5126,
      "count": 388,
      "max": [
        0.9944422841072083,
        0.8492267727851868,
        0.9997559189796448
      ],
      "min": [
        -0.9964280724525452,
        -0.937264621257782,
        -0.9939727187156677
      ],
      "type": "VEC3"
    },
    {
      "bufferView": 3,
      "componentType": 5126,
      "count": 388,
      "max": [
        0.9976418614387512,
        0.9998891353607178,
        0.7652324438095093,
        1.0
      ],
      "min": [
        -0.9939807653427124,
        -0.999851644039154,
        -0.9174928069114685,
        1.0
      ],
      "type": "VEC4"
    },
    {
      "bufferView": 1,
      "componentType": 5126,
      "count": 388,
      "max": [
        0.9821286201477051,
        0.998634934425354
      ],
      "min": [
        0.0013649457832798362,
        0.0013649590546265244
      ],
      "type": "VEC2"
    },
    {
      "bufferView": 1,
      "byteOffset": 3104,
      "componentType": 5126,
      "count": 388,
      "max": [
        0.9821286201477051,
        0.998634934425354
      ],
      "min": [
        0.0013649457832798362,
        0.0013649590546265244
      ],
      "type": "VEC2"
    },
    {
      "bufferView": 1,
      "byteOffset": 6208,
      "componentType": 5126,
      "count": 388,
      "max": [
        0.9821286201477051,
        0.998634934425354
      ],
      "min": [
        0.0013649457832798362,
        0.0013649590546265244
      ],
      "type": "VEC2"
    },
    {
      "bufferView": 1,
      "byteOffset": 9312,
      "componentType": 5126,
      "count": 388,
      "max": [
        0.9821286201477051,
        0.998634934425354
      ],
      "min": [
        0.0013649457832798362,
        0.0013649590546265244
      ],
      "type": "VEC2"
    },
    {
      "bufferView": 0,
      "componentType": 5125,
      "count": 1008,
      "type": "SCALAR"
    }
  ],
  "asset": {
    "extras": {
      "author": "TheTallOne (https://sketchfab.com/TheTallOne)",
      "license": "CC-BY-4.0 (http://creativecommons.org/licenses/by/4.0/)",
      "source": "https://sketchfab.com/3d-models/enchanted-crystal-6b01945a041d4ed3b80e14274f0e68c9",
      "title": "Enchanted Crystal"
    },
    "generator": "Sketchfab-16.59.0",
    "version": "2.0"
  },
  "bufferViews": [
    {
      "buffer": 0,
      "byteLength": 4032,
      "name": "floatBufferViews",
      "target": 34963
    },
    {
      "buffer": 0,
      "byteLength": 12416,
      "byteOffset": 4032,
      "byteStride": 8,
      "name": "floatBufferViews",
      "target": 34962
    },
    {
      "buffer": 0,
      "byteLength": 9312,
      "byteOffset": 16448,
      "byteStride": 12,
      "name": "floatBufferViews",
      "target": 34962
    },
    {
      "buffer": 0,
      "byteLength": 6208,
      "byteOffset": 25760,
      "byteStride": 16,
      "name": "floatBufferViews",
      "target": 34962
    }
  ],
  "buffers": [
    {
      "byteLength": 31968,
      "uri": "scene.bin"
    }
  ],
  "extensionsUsed": [
    "KHR_materials_emissive_strength"
  ],
  "images": [
    {
      "uri": "textures/Crystal_baseColor.png"
    },
    {
      "uri": "textures/Crystal_metallicRoughness.png"
    },
    {
      "uri": "textures/Crystal_emissive.png"
    },
    {
      "uri": "textures/Crystal_normal.png"
    }
  ],
  "materials": [
    {
      "doubleSided": true,
      "emissiveFactor": [
        1.0,
        1.0,
        1.0
      ],
      "emissiveTexture": {
        "index": 2
      },
      "extensions": {
        "KHR_materials_emissive_strength": {
          "emissiveStrength": 3.0163143261816083
        }
      },
      "name": "Crystal",
      "normalTexture": {
        "index": 3
      },
      "pbrMetallicRoughness": {
        "baseColorTexture": {
          "index": 0
        },
        "metallicFactor": 0.0,
        "metallicRoughnessTexture": {
          "index": 1
        }
      }
    }
  ],
  "meshes": [
    {
      "name": "Crystal_low.002_Crystal_0",
      "primitives": [
        {
          "attributes": {
            "NORMAL": 1,
            "POSITION": 0,
            "TANGENT": 2,
            "TEXCOORD_0": 3,
            "TEXCOORD_1": 4,
            "TEXCOORD_2": 5,
            "TEXCOORD_3": 6
          },
          "indices": 7,
          "material": 0,
          "mode": 4
        }
      ]
    }
  ],
  "nodes": [
    {
      "children": [
        1
      ],
      "matrix": [
        0.6905471086502075,
        -0.304296165704727,
        -0.6561620235443116,
        0.0,
        -0.6455158591270447,
        0.14994910359382646,
        -0.7488821744918823,
        0.0,
        0.3262728750705719,
        0.940701425075531,
        -0.09288108348846415,
        0.0,
        0.0,
        0.0,
        0.0,
        1.0
      ],
      "name": "Sketchfab_model"
    },
    {
      "children": [
        2
      ],
      "matrix": [
        0.009999999776482582,
        0.0,
        0.0,
        0.0,
        0.0,
        0.0,
        0.009999999776482582,
        0.0,
        0.0,
        -0.009999999776482582,
        0.0,
        0.0,
        0.0,
        0.0,
        0.0,
        1.0
      ],
      "name": "f7a6c4e380104043b1315d17fc4d6704.fbx"
    },
    {
      "children": [
        3
      ],
      "name": "RootNode"
    },
    {
      "children": [
        4
      ],
      "matrix": [
        1.1885435581207275,
        0.0,
        0.0,
        0.0,
        0.0,
        1.188543677330017,
        0.0,
        0.0,
        0.0,
        0.0,
        1.1885437965393066,
        0.0,
        0.0,
        0.0,
        0.0,
        1.0
      ],
      "name": "Crystal_low.002"
    },
    {
      "mesh": 0,
      "name": "Crystal_low.002_Crystal_0"
    }
  ],
  "samplers": [
    {
      "magFilter": 9729,
      "minFilter": 9987,
      "wrapS": 10497,
      "wrapT": 10497
    }
  ],
  "scene": 0,
  "scenes": [
    {
      "name": "Sketchfab_Scene",
      "nodes": [
        0
      ]
    }
  ],
  "textures": [
    {
      "sampler": 0,
      "source": 0
    },
    {
      "sampler": 0,
      "source": 1
    },
    {
      "sampler": 0,
      "source": 2
    },
    {
      "sampler": 0,
      "source": 3
    }
  ]
}
